<svg width="18" height="18" viewBox="0 0 18 18" fill="none" xmlns="http://www.w3.org/2000/svg">
<g clip-path="url(#clip0_54_2)">
<circle cx="9.5" cy="8.5" r="6.5" fill="#D9D9D9"/>
<path d="M9 1C7.41775 1 5.87103 1.46919 4.55544 2.34824C3.23985 3.22729 2.21447 4.47672 1.60897 5.93853C1.00347 7.40034 0.84504 9.00887 1.15372 10.5607C1.4624 12.1126 2.22433 13.538 3.34315 14.6569C4.46197 15.7757 5.88743 16.5376 7.43928 16.8463C8.99113 17.155 10.5997 16.9965 12.0615 16.391C13.5233 15.7855 14.7727 14.7602 15.6518 13.4446C16.5308 12.129 17 10.5823 17 9C17 6.87827 16.1571 4.84344 14.6569 3.34315C13.1566 1.84285 11.1217 1 9 1ZM9.03 9.84C8.94554 9.84066 8.86178 9.82459 8.78355 9.79273C8.70532 9.76086 8.63418 9.71382 8.57422 9.65433C8.51426 9.59483 8.46667 9.52405 8.43419 9.44608C8.40172 9.3681 8.385 9.28447 8.385 9.2V4.325C8.385 4.15394 8.45296 3.98988 8.57392 3.86892C8.69488 3.74796 8.85894 3.68 9.03 3.68C9.20107 3.68 9.36513 3.74796 9.48609 3.86892C9.60705 3.98988 9.675 4.15394 9.675 4.325V9.2C9.67501 9.28447 9.65829 9.3681 9.62581 9.44608C9.59334 9.52405 9.54575 9.59483 9.48579 9.65433C9.42583 9.71382 9.35468 9.76086 9.27646 9.79273C9.19823 9.82459 9.11447 9.84066 9.03 9.84ZM9 13.895C7.9469 13.9075 6.91738 13.583 6.06169 12.9691C5.20599 12.3551 4.56891 11.4837 4.24341 10.4821C3.91792 9.4805 3.92105 8.40108 4.25234 7.40137C4.58364 6.40166 5.22576 5.534 6.085 4.925C6.23466 4.81833 6.42027 4.77479 6.60176 4.80379C6.78324 4.83279 6.94604 4.932 7.055 5.08C7.1082 5.15309 7.1464 5.23598 7.16741 5.3239C7.18841 5.41182 7.19181 5.50303 7.1774 5.59228C7.16299 5.68152 7.13106 5.76702 7.08345 5.84386C7.03584 5.92071 6.9735 5.98737 6.9 6.04C6.40577 6.40296 6.01275 6.88647 5.7584 7.44443C5.50406 8.00238 5.39687 8.61619 5.44705 9.22733C5.49724 9.83846 5.70312 10.4266 6.04508 10.9355C6.38704 11.4445 6.85367 11.8575 7.4005 12.1349C7.94732 12.4124 8.5561 12.5452 9.1688 12.5206C9.7815 12.4961 10.3777 12.315 10.9006 11.9946C11.4234 11.6743 11.8555 11.2253 12.1556 10.6906C12.4557 10.1559 12.6139 9.55319 12.615 8.94C12.6133 8.37502 12.4762 7.81867 12.2153 7.31757C11.9543 6.81648 11.577 6.38524 11.115 6.06C10.9728 5.94774 10.8808 5.78368 10.8592 5.60375C10.8377 5.42382 10.8883 5.24269 11 5.1C11.1105 4.95357 11.274 4.85634 11.4554 4.82922C11.6368 4.80211 11.8216 4.84727 11.97 4.955C12.8203 5.57097 13.4522 6.44183 13.774 7.44123C14.0959 8.44062 14.0909 9.51657 13.7599 10.513C13.4289 11.5094 12.789 12.3744 11.9331 12.9825C11.0772 13.5906 10.0498 13.9103 9 13.895Z" fill="#FF0000"/>
</g>
<defs>
<clipPath id="clip0_54_2">
<rect width="18" height="18" fill="white"/>
</clipPath>
</defs>
</svg>
