<svg width="36" height="36" viewBox="0 0 36 36" fill="none" xmlns="http://www.w3.org/2000/svg">
<path d="M16.0988 23.9446C15.8671 23.08 15.9884 22.1588 16.436 21.3836C16.8835 20.6084 17.6207 20.0428 18.4853 19.8111C19.3499 19.5794 20.2711 19.7007 21.0463 20.1483C21.8215 20.5958 22.3871 21.333 22.6188 22.1976C22.8505 23.0622 22.7292 23.9834 22.2816 24.7586C21.8341 25.5338 21.0969 26.0994 20.2323 26.3311C19.3677 26.5628 18.4465 26.4415 17.6713 25.9939C16.8961 25.5464 16.3305 24.8092 16.0988 23.9446Z" fill="black"/>
<path fill-rule="evenodd" clip-rule="evenodd" d="M5.64232 8.54317C5.05749 10.2668 5.60217 12.2996 6.69309 16.3709L9.02247 25.0643C10.113 29.1342 10.6581 31.1684 12.0263 32.3687C12.6189 32.8885 13.3081 33.2864 14.0545 33.5397C15.7781 34.1245 17.8109 33.5798 21.8823 32.4889C25.9537 31.398 27.9865 30.8533 29.1867 29.485C29.7065 28.8924 30.1044 28.2032 30.3577 27.4568C30.9425 25.7332 30.3978 23.7004 29.3069 19.6291L26.9775 10.9357C25.887 6.86581 25.3419 4.83157 23.9737 3.6313C23.3811 3.11155 22.6919 2.71365 21.9455 2.46034C20.2219 1.87551 18.1891 2.42019 14.1177 3.51111C10.0463 4.60204 8.01355 5.14672 6.81328 6.51499C6.29353 7.10758 5.89563 7.79676 5.64232 8.54317ZM17.9029 17.6378C17.1894 17.829 16.5206 18.1588 15.9345 18.6085C15.3485 19.0582 14.8568 19.6189 14.4874 20.2586C14.1181 20.8983 13.8783 21.6045 13.7819 22.3369C13.6855 23.0693 13.7343 23.8135 13.9255 24.527C14.1167 25.2405 14.4465 25.9094 14.8962 26.4954C15.3459 27.0814 15.9066 27.5732 16.5463 27.9425C17.186 28.3118 17.8922 28.5516 18.6246 28.648C19.357 28.7444 20.1011 28.6956 20.8147 28.5044C22.2557 28.1183 23.4843 27.1756 24.2302 25.8836C24.9761 24.5916 25.1783 23.0563 24.7921 21.6153C24.406 20.1742 23.4633 18.9456 22.1713 18.1997C20.8793 17.4538 19.344 17.2517 17.9029 17.6378ZM10.0432 10.0381C9.96596 9.74988 10.0064 9.4428 10.1556 9.18441C10.3048 8.92602 10.5505 8.73747 10.8387 8.66024L19.532 6.33087C19.8202 6.25365 20.1273 6.29408 20.3857 6.44326C20.6441 6.59244 20.8326 6.83817 20.9098 7.12637C20.9871 7.41457 20.9466 7.72164 20.7975 7.98004C20.6483 8.23843 20.4026 8.42698 20.1144 8.50421L11.421 10.8336C11.1328 10.9108 10.8257 10.8704 10.5673 10.7212C10.309 10.572 10.1204 10.3263 10.0432 10.0381ZM12.8769 16.2669C13.2611 16.1639 13.5888 15.9125 13.7877 15.568C13.9866 15.2235 14.0405 14.8141 13.9375 14.4298C13.8346 14.0455 13.5832 13.7179 13.2386 13.519C12.8941 13.3201 12.4847 13.2662 12.1004 13.3691C11.7162 13.4721 11.3885 13.7235 11.1896 14.068C10.9907 14.4125 10.9368 14.822 11.0398 15.2062C11.1427 15.5905 11.3941 15.9181 11.7386 16.1171C12.0832 16.316 12.4926 16.3699 12.8769 16.2669ZM18.2842 13.2651C18.3872 13.6494 18.3333 14.0588 18.1344 14.4033C17.9354 14.7479 17.6078 14.9993 17.2235 15.1022C16.8393 15.2052 16.4298 15.1513 16.0853 14.9524C15.7408 14.7535 15.4894 14.4258 15.3864 14.0416C15.2835 13.6573 15.3374 13.2479 15.5363 12.9033C15.7352 12.5588 16.0628 12.3074 16.4471 12.2044C16.8314 12.1015 17.2408 12.1554 17.5853 12.3543C17.9298 12.5532 18.1812 12.8808 18.2842 13.2651ZM21.5702 13.9375C21.9545 13.8346 22.2821 13.5832 22.481 13.2386C22.6799 12.8941 22.7338 12.4847 22.6309 12.1004C22.5279 11.7162 22.2765 11.3885 21.932 11.1896C21.5875 10.9907 21.178 10.9368 20.7938 11.0398C20.4095 11.1427 20.0819 11.3941 19.8829 11.7386C19.684 12.0832 19.6301 12.4926 19.7331 12.8769C19.8361 13.2611 20.0875 13.5888 20.432 13.7877C20.7765 13.9866 21.1859 14.0405 21.5702 13.9375Z" fill="black"/>
</svg>
