<svg width="36" height="36" viewBox="0 0 36 36" fill="none" xmlns="http://www.w3.org/2000/svg">
<path d="M6.69309 16.3709C5.60256 12.301 5.05749 10.2668 5.64232 8.54317C5.89563 7.79676 6.29353 7.10758 6.81328 6.51499C8.01355 5.14672 10.0463 4.60204 14.1177 3.51111C18.1891 2.42019 20.2219 1.87551 21.9455 2.46034C22.6919 2.71365 23.3811 3.11155 23.9737 3.6313C25.3419 4.83157 25.8866 6.86436 26.9775 10.9357L29.3069 19.6291C30.3974 23.699 30.9425 25.7332 30.3577 27.4568C30.1044 28.2032 29.7065 28.8924 29.1867 29.485C27.9865 30.8533 25.9537 31.398 21.8823 32.4889C17.8109 33.5798 15.7781 34.1245 14.0545 33.5397C13.3081 33.2864 12.6189 32.8885 12.0263 32.3687C10.6581 31.1684 10.1134 29.1356 9.02247 25.0643L6.69309 16.3709Z" stroke="black" stroke-width="1.5"/>
<path d="M23.7055 21.9064C24.0144 23.0592 23.8526 24.2875 23.2559 25.3211C22.6592 26.3547 21.6763 27.1089 20.5235 27.4178C19.3707 27.7267 18.1424 27.565 17.1088 26.9682C16.0752 26.3715 15.321 25.3886 15.0121 24.2358C14.7032 23.083 14.8649 21.8547 15.4617 20.8211C16.0584 19.7875 17.0413 19.0333 18.1941 18.7244C19.3469 18.4156 20.5752 18.5773 21.6088 19.174C22.6424 19.7707 23.3966 20.7536 23.7055 21.9064Z" stroke="black" stroke-width="1.5"/>
<path d="M11.1299 9.74691L19.8232 7.41754" stroke="black" stroke-width="1.5" stroke-linecap="round"/>
<path d="M12.8769 16.2669C13.6771 16.0525 14.152 15.23 13.9375 14.4298C13.7231 13.6296 12.9006 13.1547 12.1004 13.3691C11.3002 13.5835 10.8254 14.4061 11.0398 15.2063C11.2542 16.0065 12.0767 16.4813 12.8769 16.2669Z" fill="black"/>
<path d="M17.2235 15.1022C18.0237 14.8878 18.4986 14.0653 18.2842 13.2651C18.0698 12.4649 17.2473 11.99 16.4471 12.2044C15.6469 12.4189 15.172 13.2414 15.3864 14.0416C15.6008 14.8418 16.4233 15.3166 17.2235 15.1022Z" fill="black"/>
<path d="M21.5702 13.9375C22.3704 13.7231 22.8453 12.9006 22.6309 12.1004C22.4165 11.3002 21.594 10.8253 20.7938 11.0398C19.9936 11.2542 19.5187 12.0767 19.7331 12.8769C19.9475 13.6771 20.77 14.152 21.5702 13.9375Z" fill="black"/>
</svg>
