<svg width="36" height="36" viewBox="0 0 36 36" fill="none" xmlns="http://www.w3.org/2000/svg">
<path d="M18.6146 20.2937C19.3511 20.0964 20.136 20.1996 20.7963 20.5808C21.4566 20.962 21.9387 21.5904 22.1361 22.3269C22.3335 23.0634 22.2302 23.8483 21.849 24.5086C21.4678 25.1689 20.8395 25.651 20.1029 25.8484C19.4585 26.0211 18.7769 25.9637 18.1742 25.6912L17.9213 25.5613C17.261 25.1801 16.7788 24.5518 16.5814 23.8152C16.4087 23.1708 16.4661 22.4892 16.7387 21.8865L16.8685 21.6336C17.2497 20.9733 17.8781 20.4911 18.6146 20.2937Z" fill="white" stroke="black"/>
<path d="M18.9918 2.85084C20.1851 2.65777 21.0321 2.67846 21.7848 2.93385C22.469 3.16605 23.1009 3.53065 23.6441 4.00709C24.2416 4.53121 24.6825 5.25497 25.1119 6.38502C25.5444 7.523 25.9468 9.01988 26.4947 11.0647L28.8238 19.7581C29.372 21.8038 29.773 23.3016 29.9674 24.5032C30.1605 25.6964 30.1398 26.5435 29.8844 27.2962C29.6522 27.9803 29.2876 28.6123 28.8111 29.1555C28.287 29.7531 27.5632 30.1939 26.4332 30.6233C25.2954 31.0557 23.7982 31.458 21.7525 32.0061C19.7072 32.5542 18.2099 32.9543 17.0084 33.1487C15.8153 33.3417 14.9681 33.3219 14.2154 33.0667C13.5312 32.8345 12.8993 32.4689 12.3561 31.9924C11.7587 31.4683 11.3168 30.7446 10.8873 29.6145C10.4549 28.4765 10.0534 26.9795 9.50548 24.9348L7.17638 16.2415C6.62822 14.1958 6.22725 12.698 6.03282 11.4963C5.83982 10.3033 5.86046 9.45602 6.11583 8.70338C6.34801 8.01943 6.71283 7.38803 7.18907 6.84498C7.7132 6.2475 8.43626 5.80563 9.56602 5.37623C10.7038 4.94383 12.2012 4.54249 14.2467 3.9944C16.2924 3.44625 17.7902 3.04527 18.9918 2.85084ZM22.4215 17.7669C21.0146 16.9547 19.3422 16.7341 17.7731 17.1546C16.9963 17.3628 16.2686 17.7226 15.6305 18.2122C14.9924 18.7018 14.4565 19.3125 14.0543 20.009C13.6523 20.7055 13.3907 21.4743 13.2858 22.2717C13.1808 23.0692 13.2348 23.8796 13.443 24.6565C13.6512 25.4333 14.01 26.162 14.4996 26.8001C14.9892 27.438 15.6 27.9731 16.2965 28.3753C16.993 28.7773 17.7617 29.0388 18.5592 29.1438C19.3566 29.2488 20.167 29.1957 20.944 28.9876C22.513 28.5672 23.8515 27.5408 24.6637 26.134C25.4759 24.7272 25.6955 23.0547 25.275 21.4856C24.8546 19.9166 23.8281 18.579 22.4215 17.7669ZM13.4889 13.0862C13.0296 12.821 12.4836 12.7489 11.9713 12.886C11.4592 13.0233 11.0217 13.3584 10.7565 13.8176C10.4913 14.2769 10.42 14.823 10.5572 15.3352C10.6773 15.7835 10.9483 16.1743 11.3219 16.4426L11.4889 16.5501C11.9483 16.8152 12.4941 16.8876 13.0065 16.7503C13.5187 16.6129 13.9551 16.277 14.2203 15.8176C14.4855 15.3583 14.5578 14.8124 14.4205 14.3001C14.2833 13.7879 13.948 13.3513 13.4889 13.0862ZM17.8356 11.9212C17.3763 11.656 16.8302 11.5839 16.318 11.721C15.8056 11.8583 15.3683 12.1942 15.1031 12.6536C14.8381 13.1129 14.7658 13.6589 14.9029 14.1712H14.9039C15.0413 14.6833 15.3762 15.1198 15.8356 15.385C16.2949 15.6502 16.8408 15.7226 17.3531 15.5852C17.8654 15.448 18.3018 15.1127 18.567 14.6536C18.8322 14.1943 18.9044 13.6483 18.7672 13.136C18.6299 12.6237 18.2948 12.1864 17.8356 11.9212ZM22.1822 10.7561C21.723 10.491 21.1769 10.4197 20.6647 10.5569C20.2162 10.677 19.8256 10.9487 19.5572 11.3225L19.4498 11.4885C19.1847 11.9479 19.1133 12.4937 19.2506 13.0061C19.3879 13.5183 19.7229 13.9557 20.1822 14.221C20.6415 14.486 21.1875 14.5575 21.6998 14.4202C22.2121 14.2829 22.6485 13.9478 22.9137 13.4885C23.1458 13.0866 23.2304 12.6183 23.1559 12.1643L23.1139 11.971C22.9766 11.4588 22.6416 11.0213 22.1822 10.7561ZM20.6354 6.01002C20.2623 5.79476 19.819 5.73652 19.4029 5.84791L10.7096 8.17701C10.2933 8.28857 9.93777 8.56163 9.72227 8.93483C9.50703 9.30788 9.44874 9.75117 9.56017 10.1672C9.6717 10.5836 9.94398 10.9391 10.317 11.1546C10.6436 11.3431 11.0243 11.4114 11.3932 11.3508L11.5504 11.3167L20.2438 8.98756C20.6601 8.876 21.0146 8.60294 21.2301 8.22975H21.2311C21.4461 7.85688 21.5046 7.41348 21.3932 6.99733C21.2817 6.58106 21.0087 6.22553 20.6354 6.01002Z" fill="white" stroke="black"/>
</svg>
